<svg width="32" height="32" viewBox="0 0 32 32" fill="none" xmlns="http://www.w3.org/2000/svg">
<circle cx="16" cy="16" r="16" fill="#C90B0B"/>
<g clip-path="url(#clip0_1_435)">
<path d="M17.8543 10.9767C18.6835 10.9767 19.3618 10.307 19.3618 9.48837C19.3618 8.66977 18.6835 8 17.8543 8C17.0252 8 16.3468 8.66977 16.3468 9.48837C16.3468 10.307 17.0252 10.9767 17.8543 10.9767ZM15.4649 19.907L15.8946 18.0465L17.4774 19.5349V23.2558C17.4774 23.6651 17.8166 24 18.2312 24C18.6458 24 18.985 23.6651 18.985 23.2558V19.0586C18.985 18.6493 18.8191 18.2623 18.5176 17.9795L17.4021 16.9302L17.8543 14.6977C18.6608 15.6205 19.8292 16.2828 21.1407 16.4912C21.593 16.5581 22 16.2009 22 15.747C22 15.3823 21.7286 15.0772 21.3593 15.0177C20.2136 14.8316 19.2639 14.1619 18.7588 13.2837L18.0051 12.093C17.7036 11.6465 17.2513 11.3488 16.7237 11.3488C16.4976 11.3488 16.3468 11.4233 16.1207 11.4233L13.1207 12.6735C12.5629 12.9116 12.2011 13.4474 12.2011 14.0502V15.814C12.2011 16.2233 12.5403 16.5581 12.9549 16.5581C13.3695 16.5581 13.7087 16.2233 13.7087 15.814V14.0279L15.0654 13.507L13.8594 19.5349L10.9047 18.9395C10.4976 18.8577 10.0982 19.1181 10.0152 19.52V19.5498C9.93232 19.9516 10.1961 20.346 10.6032 20.4279L13.7011 21.0381C14.5001 21.1944 15.284 20.6958 15.4649 19.907Z" fill="white"/>
</g>
<defs>
<clipPath id="clip0_1_435">
<rect width="16" height="16" fill="white" transform="translate(8 8)"/>
</clipPath>
</defs>
</svg>
