<svg width="14" height="14" viewBox="0 0 14 14" fill="none" xmlns="http://www.w3.org/2000/svg">
<path fill-rule="evenodd" clip-rule="evenodd" d="M4.40004 0C4.07532 0 3.79783 0.233967 3.74296 0.554024L3.43794 2.33333H1.00004C0.631851 2.33333 0.333374 2.63181 0.333374 3C0.333374 3.36819 0.631851 3.66667 1.00004 3.66667H2.04167L2.66809 13.3763C2.69072 13.7271 2.98185 14 3.33337 14H10.6667C11.0182 14 11.3094 13.7271 11.332 13.3763L11.9584 3.66667H13C13.3682 3.66667 13.6667 3.36819 13.6667 3C13.6667 2.63181 13.3682 2.33333 13 2.33333H10.5621L10.2571 0.554024C10.2023 0.233967 9.92477 0 9.60004 0H4.40004ZM9.20936 2.33333H4.79072L4.96215 1.33333H9.03794L9.20936 2.33333ZM3.95842 12.6667L3.37777 3.66667H10.6223L10.0417 12.6667H3.95842Z" fill="#9EA6B4"/>
</svg>
