<svg width="12" height="16" viewBox="0 0 12 16" fill="none" xmlns="http://www.w3.org/2000/svg">
<path fill-rule="evenodd" clip-rule="evenodd" d="M3.17157 3.83824C3.92172 3.0881 4.93913 2.66667 6 2.66667C7.06087 2.66667 8.07828 3.0881 8.82843 3.83824C9.57857 4.58839 10 5.60581 10 6.66667C10 8.55662 8.93815 10.3263 7.74539 11.698C7.16123 12.3698 6.5745 12.9128 6.1336 13.2875C6.08732 13.3269 6.04273 13.3643 6 13.3997C5.95727 13.3643 5.91268 13.3269 5.8664 13.2875C5.4255 12.9128 4.83877 12.3698 4.25461 11.698C3.06185 10.3263 2 8.55662 2 6.66667C2 5.60581 2.42143 4.58839 3.17157 3.83824ZM6 15.6667H1.5C0.947715 15.6667 0.5 15.219 0.5 14.6667C0.5 14.1144 0.947715 13.6667 1.5 13.6667H3.34862C3.15088 13.4628 2.94826 13.2436 2.74539 13.0104C1.43815 11.507 0 9.27673 0 6.66667C0 5.07537 0.632141 3.54925 1.75736 2.42403C2.88258 1.29881 4.4087 0.666672 6 0.666672C7.5913 0.666672 9.11742 1.29881 10.2426 2.42403C11.3679 3.54925 12 5.07537 12 6.66667C12 9.27673 10.5618 11.507 9.25461 13.0104C9.05174 13.2436 8.84912 13.4628 8.65138 13.6667H10.5C11.0523 13.6667 11.5 14.1144 11.5 14.6667C11.5 15.219 11.0523 15.6667 10.5 15.6667H6ZM6 8.66667C7.10457 8.66667 8 7.77124 8 6.66667C8 5.5621 7.10457 4.66667 6 4.66667C4.89543 4.66667 4 5.5621 4 6.66667C4 7.77124 4.89543 8.66667 6 8.66667Z" fill="#2F3747"/>
</svg>
