<svg width="42" height="52" viewBox="0 0 42 52" fill="none" xmlns="http://www.w3.org/2000/svg">
<circle cx="21" cy="48" r="3" fill="#9EA6B4" stroke="white" stroke-width="2"/>
<g filter="url(#filter0_dd_1_431)">
<path d="M5.87195 8.36808C5 10.0794 5 12.3196 5 16.8V23.2C5 27.6804 5 29.9206 5.87195 31.6319C6.63893 33.1372 7.86278 34.3611 9.36808 35.1281C11.0794 36 13.3196 36 17.8 36H18L20.5318 42.7516C20.6941 43.1841 21.3059 43.1841 21.4682 42.7516L24 36H24.2C28.6804 36 30.9206 36 32.6319 35.1281C34.1372 34.3611 35.3611 33.1372 36.1281 31.6319C37 29.9206 37 27.6804 37 23.2V16.8C37 12.3196 37 10.0794 36.1281 8.36808C35.3611 6.86278 34.1372 5.63893 32.6319 4.87195C30.9206 4 28.6804 4 24.2 4H17.8C13.3196 4 11.0794 4 9.36808 4.87195C7.86278 5.63893 6.63893 6.86278 5.87195 8.36808Z" fill="#9EA6B4"/>
<path d="M18.0468 35.9824L18.0346 35.95H18H17.8C15.559 35.95 13.8812 35.95 12.5497 35.8412C11.2188 35.7324 10.2382 35.5153 9.39078 35.0835C7.89489 34.3213 6.67869 33.1051 5.9165 31.6092C5.48471 30.7618 5.26757 29.7812 5.15883 28.4503C5.05004 27.1188 5.05 25.441 5.05 23.2V16.8C5.05 14.559 5.05004 12.8812 5.15883 11.5497C5.26757 10.2188 5.48471 9.2382 5.9165 8.39078C6.67869 6.89489 7.89489 5.67869 9.39078 4.9165C10.2382 4.48471 11.2188 4.26757 12.5497 4.15883C13.8812 4.05004 15.559 4.05 17.8 4.05H24.2C26.441 4.05 28.1188 4.05004 29.4503 4.15883C30.7812 4.26757 31.7618 4.48471 32.6092 4.9165C34.1051 5.67869 35.3213 6.89489 36.0835 8.39078C36.5153 9.2382 36.7324 10.2188 36.8412 11.5497C36.95 12.8812 36.95 14.559 36.95 16.8V23.2C36.95 25.441 36.95 27.1188 36.8412 28.4503C36.7324 29.7812 36.5153 30.7618 36.0835 31.6092C35.3213 33.1051 34.1051 34.3213 32.6092 35.0835C31.7618 35.5153 30.7812 35.7324 29.4503 35.8412C28.1188 35.95 26.441 35.95 24.2 35.95H24H23.9653L23.9532 35.9824L21.4213 42.734C21.2754 43.1233 20.7246 43.1233 20.5787 42.734L18.0468 35.9824Z" stroke="black" stroke-opacity="0.1" stroke-width="0.1"/>
</g>
<defs>
<filter id="filter0_dd_1_431" x="0" y="0" width="42" height="49.076" filterUnits="userSpaceOnUse" color-interpolation-filters="sRGB">
<feFlood flood-opacity="0" result="BackgroundImageFix"/>
<feColorMatrix in="SourceAlpha" type="matrix" values="0 0 0 0 0 0 0 0 0 0 0 0 0 0 0 0 0 0 127 0" result="hardAlpha"/>
<feOffset dy="1"/>
<feGaussianBlur stdDeviation="2.5"/>
<feComposite in2="hardAlpha" operator="out"/>
<feColorMatrix type="matrix" values="0 0 0 0 0 0 0 0 0 0 0 0 0 0 0 0 0 0 0.1 0"/>
<feBlend mode="normal" in2="BackgroundImageFix" result="effect1_dropShadow_1_431"/>
<feColorMatrix in="SourceAlpha" type="matrix" values="0 0 0 0 0 0 0 0 0 0 0 0 0 0 0 0 0 0 127 0" result="hardAlpha"/>
<feOffset/>
<feGaussianBlur stdDeviation="1"/>
<feComposite in2="hardAlpha" operator="out"/>
<feColorMatrix type="matrix" values="0 0 0 0 0 0 0 0 0 0 0 0 0 0 0 0 0 0 0.1 0"/>
<feBlend mode="normal" in2="effect1_dropShadow_1_431" result="effect2_dropShadow_1_431"/>
<feBlend mode="normal" in="SourceGraphic" in2="effect2_dropShadow_1_431" result="shape"/>
</filter>
</defs>
</svg>
